<svg width="584" height="438" viewBox="0 0 584 438" fill="none" xmlns="http://www.w3.org/2000/svg">
<g filter="url(#filter0_f)">
<path d="M244.592 64.3264C323.35 54.6521 408.185 84.6271 420.399 115.396C432.946 146.445 376.741 144.607 311.51 196.239C246.279 247.871 239.853 330.876 173.269 346.626C86.0926 367.248 46.6187 257.019 69.4316 190.399C92.2446 123.78 165.379 74.2284 244.592 64.3264Z" fill="url(#paint0_linear)" fill-opacity="0.7"/>
</g>
<g filter="url(#filter1_f)">
<path d="M258.465 356.827C203.363 333.523 168.163 272.012 178.911 239.314C189.619 206.227 246.276 201.954 317.994 181.941C389.713 161.928 476.302 126.379 503.285 151.81C530.269 177.24 497.646 263.649 443.528 314.418C389.41 365.186 313.987 380.111 258.465 356.827Z" fill="url(#paint1_linear)" fill-opacity="0.6"/>
</g>
<defs>
<filter id="filter0_f" x="0.750069" y="0.156319" width="483.737" height="411.323" filterUnits="userSpaceOnUse" color-interpolation-filters="sRGB">
<feFlood flood-opacity="0" result="BackgroundImageFix"/>
<feBlend mode="normal" in="SourceGraphic" in2="BackgroundImageFix" result="shape"/>
<feGaussianBlur stdDeviation="31.1611" result="effect1_foregroundBlur"/>
</filter>
<filter id="filter1_f" x="106.759" y="72.7514" width="476.408" height="365.007" filterUnits="userSpaceOnUse" color-interpolation-filters="sRGB">
<feFlood flood-opacity="0" result="BackgroundImageFix"/>
<feBlend mode="normal" in="SourceGraphic" in2="BackgroundImageFix" result="shape"/>
<feGaussianBlur stdDeviation="35.1111" result="effect1_foregroundBlur"/>
</filter>
<linearGradient id="paint0_linear" x1="152.178" y1="343.435" x2="206.431" y2="34.6183" gradientUnits="userSpaceOnUse">
<stop stop-color="#44C18B"/>
<stop offset="1" stop-color="#44C18B" stop-opacity="0"/>
</linearGradient>
<linearGradient id="paint1_linear" x1="447.674" y1="310.668" x2="265.815" y2="141.299" gradientUnits="userSpaceOnUse">
<stop stop-color="#44C18B"/>
<stop offset="1" stop-color="#0a6b41"/>
</linearGradient>
</defs>
</svg>
